<svg width="1280" height="640" viewBox="0 0 1280 640" fill="none" xmlns="http://www.w3.org/2000/svg">
<rect width="1280" height="640" fill="#F2F2F2"/>
<rect x="5" y="5" width="1270" height="630" stroke="#EB5757" stroke-width="10"/>
<path d="M100 540L1180 100" stroke="#EB5757" stroke-width="10"/>
<path d="M1180 540L100 100" stroke="#EB5757" stroke-width="10"/>
<rect width="340" height="156" transform="translate(470 242)" fill="#F2F2F2"/>
<path d="M520.06 292.659V308H513.889V273.091H519.923V286.267H520.23C520.844 284.79 521.793 283.625 523.077 282.773C524.372 281.909 526.02 281.477 528.02 281.477C529.838 281.477 531.423 281.858 532.776 282.619C534.128 283.381 535.173 284.494 535.912 285.96C536.662 287.426 537.037 289.216 537.037 291.33V308H530.866V292.284C530.866 290.523 530.412 289.153 529.503 288.176C528.605 287.187 527.344 286.693 525.719 286.693C524.628 286.693 523.651 286.932 522.787 287.409C521.935 287.875 521.264 288.551 520.776 289.438C520.298 290.324 520.06 291.398 520.06 292.659ZM554.918 308.511C552.293 308.511 550.026 307.966 548.116 306.875C546.219 305.773 544.759 304.216 543.736 302.205C542.713 300.182 542.202 297.801 542.202 295.062C542.202 292.369 542.713 290.006 543.736 287.972C544.77 285.926 546.213 284.335 548.065 283.199C549.918 282.051 552.094 281.477 554.594 281.477C556.207 281.477 557.73 281.739 559.162 282.261C560.605 282.773 561.878 283.568 562.98 284.648C564.094 285.727 564.969 287.102 565.605 288.773C566.241 290.432 566.56 292.409 566.56 294.705V296.597H545.099V292.438H560.645C560.634 291.256 560.378 290.205 559.878 289.284C559.378 288.352 558.679 287.619 557.781 287.085C556.895 286.551 555.861 286.284 554.679 286.284C553.418 286.284 552.31 286.591 551.355 287.205C550.401 287.807 549.656 288.602 549.122 289.591C548.599 290.568 548.332 291.642 548.321 292.812V296.443C548.321 297.966 548.599 299.273 549.156 300.364C549.713 301.443 550.491 302.273 551.491 302.852C552.491 303.42 553.662 303.705 555.003 303.705C555.901 303.705 556.713 303.58 557.44 303.33C558.168 303.068 558.798 302.688 559.332 302.188C559.866 301.688 560.27 301.068 560.543 300.33L566.304 300.977C565.94 302.5 565.247 303.83 564.224 304.966C563.213 306.091 561.918 306.966 560.338 307.591C558.759 308.205 556.952 308.511 554.918 308.511ZM571.78 308V281.818H577.763V286.182H578.036C578.513 284.67 579.331 283.506 580.49 282.688C581.661 281.858 582.996 281.443 584.496 281.443C584.837 281.443 585.217 281.46 585.638 281.494C586.07 281.517 586.428 281.557 586.712 281.614V287.29C586.45 287.199 586.036 287.119 585.467 287.051C584.911 286.972 584.371 286.932 583.848 286.932C582.723 286.932 581.712 287.176 580.814 287.665C579.928 288.142 579.229 288.807 578.717 289.659C578.206 290.511 577.95 291.494 577.95 292.608V308H571.78ZM601.153 308.511C598.597 308.511 596.381 307.949 594.506 306.824C592.631 305.699 591.176 304.125 590.142 302.102C589.119 300.08 588.608 297.716 588.608 295.011C588.608 292.307 589.119 289.937 590.142 287.903C591.176 285.869 592.631 284.29 594.506 283.165C596.381 282.04 598.597 281.477 601.153 281.477C603.71 281.477 605.926 282.04 607.801 283.165C609.676 284.29 611.125 285.869 612.148 287.903C613.182 289.937 613.699 292.307 613.699 295.011C613.699 297.716 613.182 300.08 612.148 302.102C611.125 304.125 609.676 305.699 607.801 306.824C605.926 307.949 603.71 308.511 601.153 308.511ZM601.188 303.568C602.574 303.568 603.733 303.187 604.665 302.426C605.597 301.653 606.29 300.619 606.744 299.324C607.21 298.028 607.443 296.585 607.443 294.994C607.443 293.392 607.21 291.943 606.744 290.648C606.29 289.341 605.597 288.301 604.665 287.528C603.733 286.756 602.574 286.369 601.188 286.369C599.767 286.369 598.585 286.756 597.642 287.528C596.71 288.301 596.011 289.341 595.545 290.648C595.091 291.943 594.864 293.392 594.864 294.994C594.864 296.585 595.091 298.028 595.545 299.324C596.011 300.619 596.71 301.653 597.642 302.426C598.585 303.187 599.767 303.568 601.188 303.568ZM630.842 308V281.818H637.013V308H630.842ZM633.945 278.102C632.967 278.102 632.126 277.778 631.422 277.131C630.717 276.472 630.365 275.682 630.365 274.761C630.365 273.83 630.717 273.04 631.422 272.392C632.126 271.733 632.967 271.403 633.945 271.403C634.933 271.403 635.774 271.733 636.467 272.392C637.172 273.04 637.524 273.83 637.524 274.761C637.524 275.682 637.172 276.472 636.467 277.131C635.774 277.778 634.933 278.102 633.945 278.102ZM643.358 308V281.818H649.256V286.267H649.562C650.108 284.767 651.011 283.597 652.273 282.756C653.534 281.903 655.04 281.477 656.79 281.477C658.562 281.477 660.057 281.909 661.273 282.773C662.5 283.625 663.364 284.79 663.864 286.267H664.136C664.716 284.812 665.693 283.653 667.068 282.79C668.455 281.915 670.097 281.477 671.994 281.477C674.403 281.477 676.369 282.239 677.892 283.761C679.415 285.284 680.176 287.506 680.176 290.426V308H673.989V291.381C673.989 289.756 673.557 288.568 672.693 287.818C671.83 287.057 670.773 286.676 669.523 286.676C668.034 286.676 666.869 287.142 666.028 288.074C665.199 288.994 664.784 290.193 664.784 291.67V308H658.733V291.125C658.733 289.773 658.324 288.693 657.506 287.886C656.699 287.08 655.642 286.676 654.335 286.676C653.449 286.676 652.642 286.903 651.915 287.358C651.188 287.801 650.608 288.432 650.176 289.25C649.744 290.057 649.528 291 649.528 292.08V308H643.358ZM693.97 308.528C692.311 308.528 690.817 308.233 689.487 307.642C688.169 307.04 687.124 306.153 686.351 304.983C685.589 303.812 685.209 302.369 685.209 300.653C685.209 299.176 685.482 297.955 686.027 296.989C686.572 296.023 687.317 295.25 688.26 294.67C689.203 294.091 690.266 293.653 691.447 293.358C692.641 293.051 693.874 292.83 695.146 292.693C696.68 292.534 697.925 292.392 698.879 292.267C699.834 292.131 700.527 291.926 700.959 291.653C701.402 291.369 701.624 290.932 701.624 290.341V290.239C701.624 288.955 701.243 287.96 700.482 287.256C699.72 286.551 698.624 286.199 697.192 286.199C695.68 286.199 694.482 286.528 693.595 287.188C692.72 287.847 692.129 288.625 691.822 289.523L686.061 288.705C686.516 287.114 687.266 285.784 688.311 284.716C689.357 283.636 690.635 282.83 692.146 282.295C693.658 281.75 695.328 281.477 697.158 281.477C698.419 281.477 699.675 281.625 700.925 281.92C702.175 282.216 703.317 282.705 704.351 283.386C705.385 284.057 706.214 284.972 706.839 286.131C707.476 287.29 707.794 288.739 707.794 290.477V308H701.862V304.403H701.658C701.283 305.131 700.754 305.812 700.072 306.449C699.402 307.074 698.555 307.58 697.533 307.966C696.521 308.341 695.334 308.528 693.97 308.528ZM695.572 303.994C696.811 303.994 697.885 303.75 698.794 303.261C699.703 302.761 700.402 302.102 700.891 301.284C701.391 300.466 701.641 299.574 701.641 298.608V295.523C701.447 295.682 701.118 295.83 700.652 295.966C700.197 296.102 699.686 296.222 699.118 296.324C698.55 296.426 697.987 296.517 697.43 296.597C696.874 296.676 696.391 296.744 695.982 296.801C695.061 296.926 694.237 297.131 693.51 297.415C692.783 297.699 692.209 298.097 691.788 298.608C691.368 299.108 691.158 299.756 691.158 300.551C691.158 301.688 691.572 302.545 692.402 303.125C693.232 303.705 694.288 303.994 695.572 303.994ZM725.385 318.364C723.169 318.364 721.266 318.063 719.675 317.46C718.084 316.869 716.805 316.074 715.839 315.074C714.874 314.074 714.203 312.966 713.828 311.75L719.385 310.403C719.635 310.915 719.999 311.42 720.476 311.92C720.953 312.432 721.595 312.852 722.402 313.182C723.22 313.523 724.249 313.693 725.487 313.693C727.237 313.693 728.686 313.267 729.834 312.415C730.982 311.574 731.555 310.188 731.555 308.256V303.295H731.249C730.93 303.932 730.464 304.585 729.851 305.256C729.249 305.926 728.447 306.489 727.447 306.943C726.459 307.398 725.214 307.625 723.714 307.625C721.703 307.625 719.879 307.153 718.243 306.21C716.618 305.256 715.322 303.835 714.357 301.949C713.402 300.051 712.925 297.676 712.925 294.824C712.925 291.949 713.402 289.523 714.357 287.545C715.322 285.557 716.624 284.051 718.26 283.028C719.896 281.994 721.72 281.477 723.732 281.477C725.266 281.477 726.527 281.739 727.516 282.261C728.516 282.773 729.311 283.392 729.902 284.119C730.493 284.835 730.942 285.511 731.249 286.148H731.589V281.818H737.675V308.426C737.675 310.665 737.141 312.517 736.072 313.983C735.004 315.449 733.544 316.545 731.692 317.273C729.839 318 727.737 318.364 725.385 318.364ZM725.436 302.784C726.743 302.784 727.857 302.466 728.777 301.83C729.697 301.193 730.396 300.278 730.874 299.085C731.351 297.892 731.589 296.46 731.589 294.79C731.589 293.142 731.351 291.699 730.874 290.46C730.408 289.222 729.714 288.261 728.794 287.58C727.885 286.886 726.766 286.54 725.436 286.54C724.061 286.54 722.913 286.898 721.993 287.614C721.072 288.33 720.379 289.312 719.913 290.562C719.447 291.801 719.214 293.21 719.214 294.79C719.214 296.392 719.447 297.795 719.913 299C720.391 300.193 721.089 301.125 722.01 301.795C722.942 302.455 724.084 302.784 725.436 302.784ZM755.589 308.511C752.964 308.511 750.697 307.966 748.788 306.875C746.891 305.773 745.43 304.216 744.408 302.205C743.385 300.182 742.874 297.801 742.874 295.062C742.874 292.369 743.385 290.006 744.408 287.972C745.442 285.926 746.885 284.335 748.737 283.199C750.589 282.051 752.766 281.477 755.266 281.477C756.879 281.477 758.402 281.739 759.834 282.261C761.277 282.773 762.55 283.568 763.652 284.648C764.766 285.727 765.641 287.102 766.277 288.773C766.913 290.432 767.232 292.409 767.232 294.705V296.597H745.771V292.438H761.317C761.305 291.256 761.05 290.205 760.55 289.284C760.05 288.352 759.351 287.619 758.453 287.085C757.567 286.551 756.533 286.284 755.351 286.284C754.089 286.284 752.982 286.591 752.027 287.205C751.072 287.807 750.328 288.602 749.794 289.591C749.271 290.568 749.004 291.642 748.993 292.812V296.443C748.993 297.966 749.271 299.273 749.828 300.364C750.385 301.443 751.163 302.273 752.163 302.852C753.163 303.42 754.334 303.705 755.675 303.705C756.572 303.705 757.385 303.58 758.112 303.33C758.839 303.068 759.47 302.688 760.004 302.188C760.538 301.688 760.942 301.068 761.214 300.33L766.976 300.977C766.612 302.5 765.919 303.83 764.896 304.966C763.885 306.091 762.589 306.966 761.01 307.591C759.43 308.205 757.624 308.511 755.589 308.511ZM507.653 331.091V366H501.329V337.244H501.124L492.96 342.46V336.665L501.636 331.091H507.653ZM516.516 366V361.432L528.636 349.551C529.795 348.381 530.761 347.341 531.533 346.432C532.306 345.523 532.886 344.642 533.272 343.79C533.658 342.937 533.852 342.028 533.852 341.062C533.852 339.96 533.602 339.017 533.102 338.233C532.602 337.438 531.914 336.824 531.039 336.392C530.164 335.96 529.17 335.744 528.056 335.744C526.908 335.744 525.903 335.983 525.039 336.46C524.175 336.926 523.505 337.591 523.028 338.455C522.562 339.318 522.329 340.347 522.329 341.54H516.312C516.312 339.324 516.817 337.398 517.829 335.761C518.84 334.125 520.232 332.858 522.005 331.96C523.789 331.062 525.835 330.614 528.141 330.614C530.482 330.614 532.539 331.051 534.312 331.926C536.085 332.801 537.46 334 538.437 335.523C539.425 337.045 539.92 338.784 539.92 340.739C539.92 342.045 539.67 343.33 539.17 344.591C538.67 345.852 537.789 347.25 536.528 348.784C535.278 350.318 533.522 352.176 531.261 354.358L525.244 360.477V360.716H540.448V366H516.516ZM558.738 366.477C556.204 366.477 553.954 366.051 551.988 365.199C550.033 364.347 548.499 363.182 547.386 361.705C546.283 360.216 545.738 358.528 545.749 356.642C545.738 355.176 546.056 353.83 546.704 352.602C547.352 351.375 548.227 350.352 549.329 349.534C550.442 348.705 551.681 348.176 553.045 347.949V347.71C551.249 347.312 549.795 346.398 548.681 344.966C547.579 343.523 547.033 341.858 547.045 339.972C547.033 338.176 547.533 336.574 548.545 335.165C549.556 333.756 550.942 332.648 552.704 331.841C554.465 331.023 556.477 330.614 558.738 330.614C560.977 330.614 562.971 331.023 564.721 331.841C566.482 332.648 567.869 333.756 568.88 335.165C569.903 336.574 570.414 338.176 570.414 339.972C570.414 341.858 569.852 343.523 568.727 344.966C567.613 346.398 566.175 347.312 564.414 347.71V347.949C565.778 348.176 567.005 348.705 568.096 349.534C569.198 350.352 570.073 351.375 570.721 352.602C571.38 353.83 571.71 355.176 571.71 356.642C571.71 358.528 571.153 360.216 570.039 361.705C568.925 363.182 567.391 364.347 565.437 365.199C563.494 366.051 561.261 366.477 558.738 366.477ZM558.738 361.602C560.045 361.602 561.181 361.381 562.147 360.938C563.113 360.483 563.863 359.847 564.397 359.028C564.931 358.21 565.204 357.267 565.215 356.199C565.204 355.085 564.914 354.102 564.346 353.25C563.789 352.386 563.022 351.71 562.045 351.222C561.079 350.733 559.977 350.489 558.738 350.489C557.488 350.489 556.374 350.733 555.397 351.222C554.42 351.71 553.647 352.386 553.079 353.25C552.522 354.102 552.249 355.085 552.261 356.199C552.249 357.267 552.511 358.21 553.045 359.028C553.579 359.835 554.329 360.466 555.295 360.92C556.272 361.375 557.42 361.602 558.738 361.602ZM558.738 345.699C559.806 345.699 560.749 345.483 561.567 345.051C562.397 344.619 563.05 344.017 563.528 343.244C564.005 342.472 564.249 341.58 564.261 340.568C564.249 339.568 564.011 338.693 563.545 337.943C563.079 337.182 562.431 336.597 561.602 336.188C560.772 335.767 559.817 335.557 558.738 335.557C557.636 335.557 556.664 335.767 555.823 336.188C554.994 336.597 554.346 337.182 553.88 337.943C553.425 338.693 553.204 339.568 553.215 340.568C553.204 341.58 553.431 342.472 553.897 343.244C554.374 344.006 555.028 344.608 555.857 345.051C556.698 345.483 557.658 345.699 558.738 345.699ZM590.217 366.665C587.41 366.665 585.001 365.955 582.989 364.534C580.989 363.102 579.45 361.04 578.37 358.347C577.302 355.642 576.768 352.386 576.768 348.58C576.779 344.773 577.319 341.534 578.387 338.864C579.467 336.182 581.006 334.136 583.006 332.727C585.018 331.318 587.421 330.614 590.217 330.614C593.012 330.614 595.415 331.318 597.427 332.727C599.438 334.136 600.978 336.182 602.046 338.864C603.126 341.545 603.665 344.784 603.665 348.58C603.665 352.398 603.126 355.659 602.046 358.364C600.978 361.057 599.438 363.114 597.427 364.534C595.427 365.955 593.023 366.665 590.217 366.665ZM590.217 361.33C592.398 361.33 594.12 360.256 595.381 358.108C596.654 355.949 597.29 352.773 597.29 348.58C597.29 345.807 597.001 343.477 596.421 341.591C595.842 339.705 595.023 338.284 593.967 337.33C592.91 336.364 591.66 335.881 590.217 335.881C588.046 335.881 586.33 336.96 585.069 339.119C583.808 341.267 583.171 344.42 583.16 348.58C583.148 351.364 583.427 353.705 583.995 355.602C584.575 357.5 585.393 358.932 586.45 359.898C587.506 360.852 588.762 361.33 590.217 361.33ZM630.448 360.682L610.454 340.722L614.306 336.852L634.283 356.83L630.448 360.682ZM614.306 360.682L610.454 356.83L630.448 336.852L634.283 340.722L614.306 360.682ZM654.41 366.477C652.739 366.466 651.109 366.176 649.518 365.608C647.927 365.028 646.495 364.091 645.222 362.795C643.95 361.489 642.938 359.756 642.188 357.597C641.438 355.426 641.069 352.739 641.08 349.534C641.08 346.545 641.398 343.881 642.035 341.54C642.671 339.199 643.586 337.222 644.779 335.608C645.972 333.983 647.41 332.744 649.092 331.892C650.785 331.04 652.677 330.614 654.768 330.614C656.961 330.614 658.904 331.045 660.597 331.909C662.302 332.773 663.677 333.955 664.722 335.455C665.768 336.943 666.415 338.625 666.665 340.5H660.444C660.126 339.159 659.472 338.091 658.484 337.295C657.506 336.489 656.268 336.085 654.768 336.085C652.347 336.085 650.484 337.136 649.177 339.239C647.881 341.341 647.228 344.227 647.217 347.898H647.455C648.012 346.898 648.734 346.04 649.62 345.324C650.506 344.608 651.506 344.057 652.62 343.67C653.745 343.273 654.933 343.074 656.183 343.074C658.228 343.074 660.063 343.562 661.688 344.54C663.325 345.517 664.62 346.864 665.575 348.58C666.529 350.284 667.001 352.239 666.989 354.443C667.001 356.739 666.478 358.801 665.421 360.631C664.364 362.449 662.893 363.881 661.006 364.926C659.12 365.972 656.921 366.489 654.41 366.477ZM654.376 361.364C655.614 361.364 656.722 361.062 657.7 360.46C658.677 359.858 659.45 359.045 660.018 358.023C660.586 357 660.864 355.852 660.853 354.58C660.864 353.33 660.592 352.199 660.035 351.188C659.489 350.176 658.734 349.375 657.768 348.784C656.802 348.193 655.7 347.898 654.461 347.898C653.54 347.898 652.683 348.074 651.887 348.426C651.092 348.778 650.398 349.267 649.808 349.892C649.217 350.506 648.751 351.222 648.41 352.04C648.08 352.847 647.91 353.71 647.898 354.631C647.91 355.847 648.194 356.966 648.751 357.989C649.308 359.011 650.075 359.83 651.052 360.443C652.029 361.057 653.137 361.364 654.376 361.364ZM672.12 359.523V354.494L686.933 331.091H691.126V338.25H688.569L678.597 354.051V354.324H699.273V359.523H672.12ZM688.773 366V357.989L688.842 355.739V331.091H694.808V366H688.773ZM717.623 366.665C714.816 366.665 712.407 365.955 710.396 364.534C708.396 363.102 706.856 361.04 705.776 358.347C704.708 355.642 704.174 352.386 704.174 348.58C704.185 344.773 704.725 341.534 705.793 338.864C706.873 336.182 708.413 334.136 710.413 332.727C712.424 331.318 714.827 330.614 717.623 330.614C720.418 330.614 722.822 331.318 724.833 332.727C726.844 334.136 728.384 336.182 729.452 338.864C730.532 341.545 731.072 344.784 731.072 348.58C731.072 352.398 730.532 355.659 729.452 358.364C728.384 361.057 726.844 363.114 724.833 364.534C722.833 365.955 720.43 366.665 717.623 366.665ZM717.623 361.33C719.805 361.33 721.526 360.256 722.788 358.108C724.06 355.949 724.697 352.773 724.697 348.58C724.697 345.807 724.407 343.477 723.827 341.591C723.248 339.705 722.43 338.284 721.373 337.33C720.316 336.364 719.066 335.881 717.623 335.881C715.452 335.881 713.737 336.96 712.475 339.119C711.214 341.267 710.577 344.42 710.566 348.58C710.555 351.364 710.833 353.705 711.401 355.602C711.981 357.5 712.799 358.932 713.856 359.898C714.913 360.852 716.168 361.33 717.623 361.33ZM736.803 375.818V339.818H742.871V344.148H743.229C743.548 343.511 743.996 342.835 744.576 342.119C745.156 341.392 745.94 340.773 746.928 340.261C747.917 339.739 749.178 339.477 750.712 339.477C752.735 339.477 754.559 339.994 756.184 341.028C757.82 342.051 759.116 343.568 760.07 345.58C761.036 347.58 761.519 350.034 761.519 352.943C761.519 355.818 761.048 358.261 760.104 360.273C759.161 362.284 757.877 363.818 756.252 364.875C754.627 365.932 752.786 366.46 750.729 366.46C749.229 366.46 747.985 366.21 746.996 365.71C746.008 365.21 745.212 364.608 744.61 363.903C744.019 363.187 743.559 362.511 743.229 361.875H742.974V375.818H736.803ZM742.854 352.909C742.854 354.602 743.093 356.085 743.57 357.358C744.059 358.631 744.758 359.625 745.667 360.341C746.587 361.045 747.701 361.398 749.008 361.398C750.371 361.398 751.513 361.034 752.434 360.307C753.354 359.568 754.048 358.562 754.513 357.29C754.991 356.006 755.229 354.545 755.229 352.909C755.229 351.284 754.996 349.841 754.531 348.58C754.065 347.318 753.371 346.33 752.451 345.614C751.531 344.898 750.383 344.54 749.008 344.54C747.69 344.54 746.57 344.886 745.65 345.58C744.729 346.273 744.031 347.244 743.553 348.494C743.087 349.744 742.854 351.216 742.854 352.909ZM770.864 339.818L776.148 349.483L781.518 339.818H788.046L780.154 352.909L788.183 366H781.688L776.148 356.574L770.66 366H764.114L772.092 352.909L764.319 339.818H770.864Z" fill="#333333"/>
</svg>
